# xmcd CD database file
#
# Track frame offsets:
#	150
#	4627
#	19708
#	23187
#	54509
#	55485
#	73360
#	74941
#	91832
#	94788
#	116684
#	117598
#	127761
#	129135
#	146667
#	152218
#	181163
#	183265
#	207050
#	208314
#	218250
#	221184
#	239418
#	242804
#	271669
#	273829
#	298510
#	302034
#
# Disc length: 4392 seconds
#
# Revision: 3
# Processed by: cddbd v1.5.2PL0 Copyright (c) Steve Scherf et al.
# Submitted via: CDex 1.51
#
DISCID=a211261c
DTITLE=Handel - Il Trionfo del Tempo e del Disinganno  (Emmanuelle Haïm, Le Concert D'Astrée)  [CD 2-2]
DYEAR=2007
DGENRE=Classique
TTITLE0=Parte II - Recit (Tempo) Se del falso piacere
TTITLE1=Parte II - Aria (Piacere) Chiudi, chiudi i vaghi rai
TTITLE2=Parte II - Recit (Tempo) In tre parti divise
TTITLE3=Parte II - Aria (Bellezza) - Io sperai trovar nel vero
TTITLE4=Parte II - Recit (Piacere) - Tu vivi in van dolente
TTITLE5=Parte II - Aria (Piacere) - Tu giurasti di mai non lasciarmi
TTITLE6=Parte II - Recit (Tempo) - Sgaurdo, che infermo ai rai del sol si volge
TTITLE7=Parte II - Aria (Bellezza, Disinganno) - Io vorrei due cori in seno
TTITLE8=Parte II - Recit (Bellezza) - Io giurerei, che tu chiudesti i lumi
TTITLE9=Parte II - Aria (Disinganno) - Più non cura
TTITLE10=Parte II - Recit (Tempo) - È un ostinato orrore
TTITLE11=Parte II - Aria (Tempo) - È ben folle quel nocchier
TTITLE12=Parte II - Recit (Bellezza) - Dicesti il vero, e benché tardi intesi
TTITLE13=Parte II - Quartetto (Bellezza, Tempo, Disingano, Piacere) - Voglio tempo per risolvere
TTITLE14=Parte II - Recit (Bellezza, Disinganno) - Presso la reggia ove il Piacer risiede
TTITLE15=Parte II - Aria (Piacere) - Lascia la spina
TTITLE16=Parte II - Recit (Bellezza, Disinganno) - Con troppo chiare note
TTITLE17=Parte II - Aria (Bellezza) - Voglio cangiar desio
TTITLE18=Parte II - Recit (Bellezza, Piacere, Disinganno) - Or che tiene la destra
TTITLE19=Parte II - Aria (Disinganno) - Chi già del biondo crine
TTITLE20=Parte II - Recit (Bellezza) - Ma che veggio, che miro ¿
TTITLE21=Parte II - Aria (Bellezza) - Ricco pino, nel camino
TTITLE22=Parte II - Recit (Bellezza) - Sì, bella Penintenza
TTITLE23=Parte II - Duetto (Disinganno, Tempo) - Il bel pianto dell'aurora
TTITLE24=Parte II - Recit (Bellezza) - Piacer, che meco già vivesti
TTITLE25=Parte II - Aria (Piacere) - Come nembo que fugge col vento
TTITLE26=Parte II - Recit (Bellezza) - Pure del Cielo intelligenze eterne
TTITLE27=Parte II - Aria (Bellezza) - Tu del ciel minstro eletto
EXTD=YEAR: 2007
EXTT0=
EXTT1=
EXTT2=
EXTT3=
EXTT4=
EXTT5=
EXTT6=
EXTT7=
EXTT8=
EXTT9=
EXTT10=
EXTT11=
EXTT12=
EXTT13=
EXTT14=
EXTT15=
EXTT16=
EXTT17=
EXTT18=
EXTT19=
EXTT20=
EXTT21=
EXTT22=
EXTT23=
EXTT24=
EXTT25=
EXTT26=
EXTT27=
PLAYORDER=
